<svg width="20" height="21" fill="none" xmlns="http://www.w3.org/2000/svg"><path d="M16.667 3.5H3.333c-.916 0-1.658.787-1.658 1.75l-.008 10.5c0 .963.75 1.75 1.666 1.75h13.334c.916 0 1.666-.787 1.666-1.75V5.25c0-.963-.75-1.75-1.666-1.75Zm-.334 3.719-5.891 3.868a.813.813 0 0 1-.884 0L3.667 7.219a.72.72 0 0 1-.212-.197.76.76 0 0 1-.134-.564.767.767 0 0 1 .1-.277.73.73 0 0 1 .194-.215.691.691 0 0 1 .541-.121.69.69 0 0 1 .261.114L10 9.625l5.583-3.666a.69.69 0 0 1 .543-.112.728.728 0 0 1 .453.333.765.765 0 0 1 .087.575.759.759 0 0 1-.121.267.719.719 0 0 1-.212.197Z" fill="url(#a)"/><defs><linearGradient id="a" x1="10" y1="3.5" x2="10" y2="17.5" gradientUnits="userSpaceOnUse"><stop stop-color="#FFD500"/><stop offset="1" stop-color="#F2920C"/></linearGradient></defs></svg>