<svg width="20" height="21" fill="none" xmlns="http://www.w3.org/2000/svg"><path d="m16.025 13.353-2.117-.254c-.249-.03-.5-.002-.737.085a1.649 1.649 0 0 0-.629.414l-1.534 1.61c-2.365-1.264-4.288-3.283-5.491-5.766l1.541-1.62c.359-.375.534-.9.475-1.435l-.241-2.205a1.781 1.781 0 0 0-.548-1.106 1.623 1.623 0 0 0-1.111-.443H4.192c-.942 0-1.725.824-1.667 1.812.442 7.473 6.133 13.44 13.242 13.904.941.06 1.725-.762 1.725-1.75v-1.514a1.785 1.785 0 0 0-.417-1.161 1.628 1.628 0 0 0-1.05-.571Z" fill="url(#a)"/><defs><linearGradient id="a" x1="10.007" y1="2.633" x2="10.007" y2="18.352" gradientUnits="userSpaceOnUse"><stop stop-color="#FFD500"/><stop offset="1" stop-color="#F2920C"/></linearGradient></defs></svg>