<svg width="20" height="21" viewBox="0 0 20 21" fill="none" xmlns="http://www.w3.org/2000/svg">
<path d="M16.667 3.49963H3.33299C2.41699 3.49963 1.67499 4.28713 1.67499 5.24998L1.66699 15.75C1.66699 16.7128 2.41699 17.5003 3.33299 17.5003H16.667C17.583 17.5003 18.333 16.7128 18.333 15.75V5.24998C18.333 4.28713 17.583 3.49963 16.667 3.49963ZM16.333 7.21873L10.442 11.0869C10.3091 11.1729 10.1561 11.2184 9.99999 11.2184C9.84391 11.2184 9.6909 11.1729 9.55799 11.0869L3.66699 7.21873C3.5846 7.16887 3.51261 7.10208 3.45534 7.02236C3.39807 6.94264 3.35668 6.85162 3.33364 6.75473C3.3106 6.65785 3.30639 6.55708 3.32126 6.45845C3.33613 6.35982 3.36977 6.26535 3.42017 6.18067C3.47058 6.09598 3.53671 6.02284 3.61464 5.96558C3.69256 5.90833 3.78066 5.86815 3.8737 5.84743C3.96673 5.82672 4.06279 5.8259 4.15613 5.84502C4.24948 5.86415 4.3382 5.90282 4.41699 5.95873L9.99999 9.62533L15.583 5.95873C15.6618 5.90282 15.7505 5.86415 15.8439 5.84502C15.9372 5.8259 16.0332 5.82672 16.1263 5.84743C16.2193 5.86815 16.3074 5.90833 16.3853 5.96558C16.4633 6.02284 16.5294 6.09598 16.5798 6.18067C16.6302 6.26535 16.6639 6.35982 16.6787 6.45845C16.6936 6.55708 16.6894 6.65785 16.6663 6.75473C16.6433 6.85162 16.6019 6.94264 16.5446 7.02236C16.4874 7.10208 16.4154 7.16887 16.333 7.21873Z" fill="url(#paint0_linear_631_265)"/>
<defs>
<linearGradient id="paint0_linear_631_265" x1="9.99999" y1="3.49963" x2="9.99999" y2="17.5003" gradientUnits="userSpaceOnUse">
<stop stop-color="#FFD500"/>
<stop offset="1" stop-color="#F2920C"/>
</linearGradient>
</defs>
</svg>
