<svg width="18" height="10" viewBox="0 0 18 10" fill="none" xmlns="http://www.w3.org/2000/svg">
<path fill-rule="evenodd" clip-rule="evenodd" d="M11.0792 0.385302C11.4187 -0.0503001 12.0471 -0.128195 12.4827 0.211318L17.6147 4.21132C17.8579 4.4008 18 4.69181 18 5.00005C18 5.30828 17.8579 5.59929 17.6147 5.78877L12.4827 9.78877C12.0471 10.1283 11.4187 10.0504 11.0792 9.61479C10.7397 9.17919 10.8176 8.55083 11.2532 8.21132L14.0903 6.00005H1C0.447715 6.00005 0 5.55233 0 5.00005C0 4.44776 0.447715 4.00005 1 4.00005H14.0903L11.2532 1.78877C10.8176 1.44926 10.7397 0.820904 11.0792 0.385302Z" fill="#5C3A04"/>
</svg>
