<svg width="20" height="21" viewBox="0 0 20 21" fill="none" xmlns="http://www.w3.org/2000/svg">
<path d="M16.025 13.3529L13.908 13.0988C13.6592 13.0682 13.4071 13.0971 13.1705 13.1835C12.9339 13.2699 12.719 13.4114 12.542 13.5975L11.008 15.2072C8.6427 13.9439 6.72012 11.9252 5.517 9.44162L7.058 7.82252C7.417 7.44662 7.592 6.92163 7.533 6.38717L7.292 4.18217C7.24464 3.75525 7.04942 3.36153 6.7435 3.07594C6.43759 2.79036 6.04234 2.63286 5.633 2.63342H4.192C3.25 2.63342 2.467 3.45662 2.525 4.44467C2.967 11.9175 8.658 17.8847 15.767 18.3488C16.708 18.4097 17.492 17.5875 17.492 16.5984V15.0854C17.4941 14.6574 17.3454 14.2438 17.0746 13.924C16.8038 13.6042 16.43 13.4008 16.025 13.3529Z" fill="url(#paint0_linear_631_271)"/>
<defs>
<linearGradient id="paint0_linear_631_271" x1="10.007" y1="2.63342" x2="10.007" y2="18.352" gradientUnits="userSpaceOnUse">
<stop stop-color="#FFD500"/>
<stop offset="1" stop-color="#F2920C"/>
</linearGradient>
</defs>
</svg>
